<svg xmlns="http://www.w3.org/2000/svg" xmlns:xlink="http://www.w3.org/1999/xlink" viewBox="0,0,256,256" width="64px" height="64px" fill-rule="nonzero"><g fill="none" fill-rule="nonzero" stroke="none" stroke-width="none" stroke-linecap="none" stroke-linejoin="none" stroke-miterlimit="10" stroke-dasharray="" stroke-dashoffset="0" font-family="none" font-weight="none" font-size="none" text-anchor="none" style="mix-blend-mode: normal"><g transform="scale(4,4)"><ellipse cx="32" cy="61" rx="19" ry="3" fill="#f1f1f1" stroke="none" stroke-width="1" stroke-linecap="butt" stroke-linejoin="miter" opacity="0.3"></ellipse><path d="M41,15.938v1.062h-18v-1c0,-3.314 -2.686,-6 -6,-6v0c-3.314,0 -6,2.686 -6,6v31.333c0,2.578 2.089,4.667 4.667,4.667h32.667c2.577,0 4.666,-2.089 4.666,-4.667v-31.395c0,-3.281 -2.662,-5.939 -5.943,-5.934c-0.045,0 -0.09,0 -0.135,0c-3.272,0.006 -5.922,2.661 -5.922,5.934z" fill="#4ccff1" stroke="none" stroke-width="1" stroke-linecap="butt" stroke-linejoin="miter"></path><path d="M11,30c2.762,0 5,-2.238 5,-5v-9c0,-0.552 0.448,-1 1,-1c2.017,0 3.745,-1.201 4.535,-2.921c-1.1,-1.271 -2.722,-2.079 -4.535,-2.079c-3.314,0 -6,2.686 -6,6v14z" fill="#ffffff" stroke="none" stroke-width="1" stroke-linecap="butt" stroke-linejoin="miter" opacity="0.3"></path><path d="M53,47.333v-9.333v0c-2.762,0 -5,2.238 -5,5v4h-3c-2.762,0 -5,2.238 -5,5h8.333c2.578,0 4.667,-2.089 4.667,-4.667z" fill="#f1f1f1" stroke="none" stroke-width="1" stroke-linecap="butt" stroke-linejoin="miter" opacity="0.15"></path><path d="M32,22c-8.786,0 -15.909,5.595 -15.909,12.5c0,6.905 7.123,12.5 15.909,12.5c8.786,0 15.909,-5.595 15.909,-12.5c0,-6.905 -7.123,-12.5 -15.909,-12.5z" fill="#ffa1ac" stroke="none" stroke-width="1" stroke-linecap="butt" stroke-linejoin="miter"></path><circle cx="25.004" cy="31" r="2" fill="#9c34c2" stroke="none" stroke-width="1" stroke-linecap="butt" stroke-linejoin="miter"></circle><circle cx="39.013" cy="31" r="2" fill="#9c34c2" stroke="none" stroke-width="1" stroke-linecap="butt" stroke-linejoin="miter"></circle><path d="M37.749,39.619c-1.584,1.586 -3.668,2.379 -5.749,2.379c-2.081,0 -4.165,-0.792 -5.749,-2.379c-0.83,-0.83 -0.83,-2.173 0,-3.003c0.83,-0.83 2.173,-0.83 3.003,0c1.514,1.514 3.978,1.514 5.492,0c0.83,-0.83 2.173,-0.83 3.003,0c0.83,0.83 0.83,2.172 0,3.003z" fill="#9c34c2" stroke="none" stroke-width="1" stroke-linecap="butt" stroke-linejoin="miter"></path><path d="M14.5,16c0,-1.379 1.121,-2.5 2.5,-2.5" fill="none" stroke="#ffffff" stroke-width="3" stroke-linecap="round" stroke-linejoin="round"></path></g></g></svg>