<svg xmlns="http://www.w3.org/2000/svg" xmlns:xlink="http://www.w3.org/1999/xlink" viewBox="0,0,256,256" width="64px" height="64px" fill-rule="nonzero"><g transform=""><g fill="none" fill-rule="nonzero" stroke="none" stroke-width="none" stroke-linecap="none" stroke-linejoin="none" stroke-miterlimit="10" stroke-dasharray="" stroke-dashoffset="0" font-family="none" font-weight="none" font-size="none" text-anchor="none" style="mix-blend-mode: normal"><g transform="scale(4,4)"><ellipse cx="32" cy="61" rx="19" ry="3" fill="#ffffff" stroke="none" stroke-width="1" stroke-linecap="butt" stroke-linejoin="miter" opacity="0.3"></ellipse><path d="M51.092,12.907c-5.1,-5.098 -11.88,-7.907 -19.092,-7.907c-7.212,0 -13.992,2.809 -19.092,7.908c-5.1,5.099 -7.908,11.88 -7.908,19.092h54c0,-7.212 -2.809,-13.992 -7.908,-19.093z" fill="#ffce29" stroke="none" stroke-width="1" stroke-linecap="butt" stroke-linejoin="miter"></path><circle cx="32" cy="32" r="21" fill="#ffce29" stroke="none" stroke-width="1" stroke-linecap="butt" stroke-linejoin="miter"></circle><circle cx="9.5" cy="32.5" r="4.5" fill="#ffce29" stroke="none" stroke-width="1" stroke-linecap="butt" stroke-linejoin="miter"></circle><circle cx="54.5" cy="32.5" r="4.5" fill="#ffce29" stroke="none" stroke-width="1" stroke-linecap="butt" stroke-linejoin="miter"></circle><path d="M32,10c2.605,0 4.72,-1.999 4.954,-4.543c-1.618,-0.298 -3.273,-0.457 -4.954,-0.457c-7.212,0 -13.992,2.809 -19.092,7.908c-4.027,4.027 -6.618,9.105 -7.533,14.613c0.42,0.11 0.842,0.183 1.261,0.183c2.04,0 3.955,-1.257 4.696,-3.283c1.096,-2.997 2.816,-5.682 5.112,-7.978c4.155,-4.155 9.68,-6.443 15.556,-6.443z" fill="#ffffff" stroke="none" stroke-width="1" stroke-linecap="butt" stroke-linejoin="miter" opacity="0.3"></path><path d="M46.849,46.849c2.924,-2.924 4.785,-6.499 5.623,-10.257c-2.356,-0.826 -5.006,0.198 -6.133,2.495c-0.767,1.563 -1.785,2.986 -3.025,4.227c-2.927,2.927 -6.815,4.589 -10.949,4.682c-2.554,0.058 -4.594,2.027 -4.839,4.507c6.749,1.465 14.077,-0.407 19.323,-5.654z" fill="#ffffff" stroke="none" stroke-width="1" stroke-linecap="butt" stroke-linejoin="miter" opacity="0.15"></path><circle cx="21.5" cy="23.5" r="6.5" fill="#9c34c2" stroke="none" stroke-width="1" stroke-linecap="butt" stroke-linejoin="miter"></circle><circle cx="23.5" cy="21.5" r="4.5" fill="#a0effe" stroke="none" stroke-width="1" stroke-linecap="butt" stroke-linejoin="miter"></circle><circle cx="42.5" cy="23.5" r="6.5" fill="#9c34c2" stroke="none" stroke-width="1" stroke-linecap="butt" stroke-linejoin="miter"></circle><circle cx="44.5" cy="21.5" r="4.5" fill="#a0effe" stroke="none" stroke-width="1" stroke-linecap="butt" stroke-linejoin="miter"></circle><path d="M32,42v0c-2.761,0 -5,-2.239 -5,-5v-4h10v4c0,2.761 -2.239,5 -5,5z" fill="#fd3c4f" stroke="none" stroke-width="1" stroke-linecap="butt" stroke-linejoin="miter"></path><path d="M39.5,44c-2.481,0 -4.5,-2.019 -4.5,-4.5v-2.5c0,-1.654 -1.346,-3 -3,-3c-0.101,0 -0.203,0.005 -0.306,0.015c-1.51,0.148 -2.694,1.556 -2.694,3.208v2.277c0,2.481 -2.019,4.5 -4.5,4.5c-2.481,0 -4.5,-2.019 -4.5,-4.5v-2.157c0,-6.499 4.922,-11.909 11.205,-12.317c0.267,-0.017 0.532,-0.026 0.795,-0.026c6.617,0 12,5.383 12,12v2.5c0,2.481 -2.019,4.5 -4.5,4.5z" fill="#ffa500" stroke="none" stroke-width="1" stroke-linecap="butt" stroke-linejoin="miter"></path><ellipse cx="32" cy="33" rx="5" ry="4" fill="#9c34c2" stroke="none" stroke-width="1" stroke-linecap="butt" stroke-linejoin="miter"></ellipse><path d="M15.029,15.029c1.133,-1.133 2.36,-2.139 3.663,-3.011c1.303,-0.872 2.681,-1.608 4.119,-2.204" fill="none" stroke="#ffffff" stroke-width="3" stroke-linecap="round" stroke-linejoin="round"></path></g></g></g></svg>